<svg width="32" height="32" viewBox="0 0 32 32" fill="none" xmlns="http://www.w3.org/2000/svg">
  <!-- Fern green background -->
  <rect width="32" height="32" rx="4" fill="#4A6741"/>

  <!-- Fern stem -->
  <path d="M16 28 C16 24 15.8 20 16 8" stroke="#E8E4D9" stroke-width="1.5" stroke-linecap="round"/>

  <!-- Fern fronds - left side -->
  <path d="M16 24 C13 22 10 22.5 8 21" stroke="#E8E4D9" stroke-width="1.2" stroke-linecap="round"/>
  <path d="M16 21 C12.5 19 9 19.5 7 18" stroke="#E8E4D9" stroke-width="1.2" stroke-linecap="round"/>
  <path d="M16 18 C11.5 15.5 8 16 6 14.5" stroke="#E8E4D9" stroke-width="1.2" stroke-linecap="round"/>
  <path d="M16 15 C12 12.5 9 13 7 11" stroke="#E8E4D9" stroke-width="1.2" stroke-linecap="round"/>
  <path d="M16 12 C13 10 10.5 10.5 9 9" stroke="#E8E4D9" stroke-width="1.2" stroke-linecap="round"/>

  <!-- Fern fronds - right side -->
  <path d="M16 24 C19 22 22 22.5 24 21" stroke="#E8E4D9" stroke-width="1.2" stroke-linecap="round"/>
  <path d="M16 21 C19.5 19 23 19.5 25 18" stroke="#E8E4D9" stroke-width="1.2" stroke-linecap="round"/>
  <path d="M16 18 C20.5 15.5 24 16 26 14.5" stroke="#E8E4D9" stroke-width="1.2" stroke-linecap="round"/>
  <path d="M16 15 C20 12.5 23 13 25 11" stroke="#E8E4D9" stroke-width="1.2" stroke-linecap="round"/>
  <path d="M16 12 C19 10 21.5 10.5 23 9" stroke="#E8E4D9" stroke-width="1.2" stroke-linecap="round"/>
</svg>
